<?xml version="1.0" standalone="no"?>
<!DOCTYPE svg PUBLIC "-//W3C//DTD SVG 20010904//EN"
 "http://www.w3.org/TR/2001/REC-SVG-20010904/DTD/svg10.dtd">
<svg version="1.0" xmlns="http://www.w3.org/2000/svg"
 width="803.000000pt" height="803.000000pt" viewBox="0 0 803.000000 803.000000"
 preserveAspectRatio="xMidYMid meet">

<g transform="translate(0.000000,803.000000) scale(0.100000,-0.100000)"
fill="#000000" stroke="none">
<path d="M525 8000 c-220 -59 -409 -237 -482 -454 l-28 -81 -3 -3428 c-2
-3788 -8 -3482 62 -3630 86 -187 246 -322 451 -384 57 -17 217 -18 3460 -21
3088 -2 3407 -1 3480 14 149 29 264 94 372 207 80 85 120 150 160 262 l28 80
3 3410 c3 3825 9 3490 -73 3660 -76 159 -212 281 -385 347 l-85 33 -3445 2
c-3342 2 -3447 1 -3515 -17z m6955 -35 c257 -61 459 -281 500 -545 8 -56 10
-953 8 -3455 l-3 -3380 -27 -80 c-40 -115 -92 -197 -180 -280 -81 -76 -174
-129 -283 -162 -57 -17 -222 -18 -3425 -21 -2454 -2 -3386 0 -3444 8 -224 32
-406 161 -502 355 -80 163 -74 -163 -74 3610 0 2921 2 3389 15 3449 49 234
243 434 477 496 71 18 160 19 3473 19 3007 1 3408 -1 3465 -14z"/>
<path d="M2380 4010 l0 -820 90 0 90 0 0 626 c0 483 3 625 12 622 7 -3 127
-284 268 -626 l255 -622 89 2 90 3 255 622 c141 343 259 623 264 623 4 0 7
-281 7 -625 l0 -625 95 0 95 0 0 820 0 821 -121 -3 -121 -3 -276 -677 c-152
-373 -282 -678 -288 -678 -6 0 -136 306 -289 680 l-279 680 -118 0 -118 0 0
-820z"/>
<path d="M4390 4010 l0 -820 95 0 95 0 0 370 0 370 440 0 440 0 0 -370 0 -370
100 0 100 0 0 820 0 820 -100 0 -100 0 0 -365 0 -365 -440 0 -440 0 0 365 0
365 -95 0 -95 0 0 -820z"/>
</g>
</svg>
